<mxfile host="app.diagrams.net" modified="2024-04-21T02:01:57.565Z" agent="Mozilla/5.0 (Windows NT 10.0; Win64; x64) AppleWebKit/537.36 (KHTML, like Gecko) Chrome/123.0.0.0 Safari/537.36" etag="CgUxCM_7gaXqBb2igN32" version="24.2.7" type="device">
  <diagram name="Page-1" id="c7488fd3-1785-93aa-aadb-54a6760d102a">
    <mxGraphModel dx="1259" dy="696" grid="1" gridSize="10" guides="1" tooltips="1" connect="1" arrows="1" fold="1" page="1" pageScale="1" pageWidth="1100" pageHeight="850" background="none" math="0" shadow="0">
      <root>
        <mxCell id="0" />
        <mxCell id="1" parent="0" />
        <mxCell id="2b4e8129b02d487f-1" value="Prescrição de Medicamentos" style="swimlane;html=1;childLayout=stackLayout;horizontal=1;startSize=20;horizontalStack=0;rounded=0;shadow=0;labelBackgroundColor=none;strokeWidth=1;fontFamily=Verdana;fontSize=8;align=center;" parent="1" vertex="1">
          <mxGeometry y="190" width="1200" height="470" as="geometry" />
        </mxCell>
        <mxCell id="VjBFUvE0pk2ebzaZ0n2s-48" style="edgeStyle=none;curved=1;rounded=0;orthogonalLoop=1;jettySize=auto;html=1;fontSize=12;startSize=8;endSize=8;entryX=0.5;entryY=0;entryDx=0;entryDy=0;" parent="2b4e8129b02d487f-1" source="2b4e8129b02d487f-13" target="2b4e8129b02d487f-12" edge="1">
          <mxGeometry relative="1" as="geometry">
            <mxPoint x="645" y="353.5" as="targetPoint" />
          </mxGeometry>
        </mxCell>
        <mxCell id="VjBFUvE0pk2ebzaZ0n2s-33" style="edgeStyle=none;curved=1;rounded=0;orthogonalLoop=1;jettySize=auto;html=1;fontSize=12;startSize=8;endSize=8;entryX=0.5;entryY=1;entryDx=0;entryDy=0;" parent="2b4e8129b02d487f-1" source="VjBFUvE0pk2ebzaZ0n2s-27" target="VjBFUvE0pk2ebzaZ0n2s-10" edge="1">
          <mxGeometry relative="1" as="geometry">
            <mxPoint x="534.9999999999998" y="263.5" as="targetPoint" />
          </mxGeometry>
        </mxCell>
        <mxCell id="2b4e8129b02d487f-3" value="Farmacêutico" style="swimlane;html=1;startSize=20;horizontal=0;" parent="2b4e8129b02d487f-1" vertex="1">
          <mxGeometry y="20" width="1200" height="150" as="geometry" />
        </mxCell>
        <mxCell id="og3euRuHdxeA9bLOcnyM-94" style="edgeStyle=orthogonalEdgeStyle;rounded=0;orthogonalLoop=1;jettySize=auto;html=1;dashed=1;" edge="1" parent="2b4e8129b02d487f-3" source="VjBFUvE0pk2ebzaZ0n2s-54">
          <mxGeometry relative="1" as="geometry">
            <mxPoint x="1060" y="200" as="targetPoint" />
          </mxGeometry>
        </mxCell>
        <mxCell id="VjBFUvE0pk2ebzaZ0n2s-54" value="separa medicamento listado na receita" style="rounded=1;whiteSpace=wrap;html=1;shadow=0;labelBackgroundColor=none;strokeWidth=1;fontFamily=Verdana;fontSize=8;align=center;" parent="2b4e8129b02d487f-3" vertex="1">
          <mxGeometry x="1020" y="56.5" width="80" height="37" as="geometry" />
        </mxCell>
        <mxCell id="VjBFUvE0pk2ebzaZ0n2s-18" value="verifica reposição" style="rounded=1;whiteSpace=wrap;html=1;shadow=0;labelBackgroundColor=none;strokeWidth=1;fontFamily=Verdana;fontSize=8;align=center;" parent="2b4e8129b02d487f-3" vertex="1">
          <mxGeometry x="690" y="50" width="70" height="37" as="geometry" />
        </mxCell>
        <mxCell id="og3euRuHdxeA9bLOcnyM-128" style="edgeStyle=orthogonalEdgeStyle;rounded=0;orthogonalLoop=1;jettySize=auto;html=1;" edge="1" parent="2b4e8129b02d487f-3" source="og3euRuHdxeA9bLOcnyM-129">
          <mxGeometry relative="1" as="geometry">
            <mxPoint x="440" y="70" as="targetPoint" />
          </mxGeometry>
        </mxCell>
        <mxCell id="og3euRuHdxeA9bLOcnyM-129" value="" style="ellipse;whiteSpace=wrap;html=1;rounded=0;shadow=0;labelBackgroundColor=none;strokeWidth=1;fontFamily=Verdana;fontSize=8;align=center;fillColor=#d5e8d4;strokeColor=#82b366;" vertex="1" parent="2b4e8129b02d487f-3">
          <mxGeometry x="370" y="55" width="30" height="30" as="geometry" />
        </mxCell>
        <mxCell id="og3euRuHdxeA9bLOcnyM-130" value="" style="strokeWidth=1;html=1;shape=mxgraph.flowchart.decision;whiteSpace=wrap;rounded=1;shadow=0;labelBackgroundColor=none;fontFamily=Verdana;fontSize=8;align=center;" vertex="1" parent="2b4e8129b02d487f-3">
          <mxGeometry x="440" y="54.499999999999886" width="30" height="30" as="geometry" />
        </mxCell>
        <mxCell id="og3euRuHdxeA9bLOcnyM-131" style="edgeStyle=orthogonalEdgeStyle;rounded=0;orthogonalLoop=1;jettySize=auto;html=1;exitX=0.5;exitY=0;exitDx=0;exitDy=0;exitPerimeter=0;entryX=0.571;entryY=0.022;entryDx=0;entryDy=0;entryPerimeter=0;" edge="1" parent="2b4e8129b02d487f-3" source="og3euRuHdxeA9bLOcnyM-130" target="og3euRuHdxeA9bLOcnyM-136">
          <mxGeometry relative="1" as="geometry">
            <Array as="points">
              <mxPoint x="455" y="31.5" />
              <mxPoint x="640" y="31.5" />
            </Array>
            <mxPoint x="630" y="41.5" as="targetPoint" />
          </mxGeometry>
        </mxCell>
        <mxCell id="og3euRuHdxeA9bLOcnyM-132" style="edgeStyle=orthogonalEdgeStyle;rounded=0;orthogonalLoop=1;jettySize=auto;html=1;entryX=0;entryY=0.5;entryDx=0;entryDy=0;" edge="1" parent="2b4e8129b02d487f-3" source="og3euRuHdxeA9bLOcnyM-133" target="og3euRuHdxeA9bLOcnyM-136">
          <mxGeometry relative="1" as="geometry">
            <mxPoint x="590" y="66.49999999999989" as="targetPoint" />
            <Array as="points" />
          </mxGeometry>
        </mxCell>
        <mxCell id="og3euRuHdxeA9bLOcnyM-133" value="Faz Cadastro" style="rounded=1;whiteSpace=wrap;html=1;shadow=0;labelBackgroundColor=none;strokeWidth=1;fontFamily=Verdana;fontSize=8;align=center;arcSize=18;" vertex="1" parent="2b4e8129b02d487f-3">
          <mxGeometry x="500" y="47.99999999999994" width="70" height="37" as="geometry" />
        </mxCell>
        <mxCell id="og3euRuHdxeA9bLOcnyM-134" value="&lt;span style=&quot;font-size: 8px;&quot;&gt;não&lt;/span&gt;" style="text;html=1;align=center;verticalAlign=middle;resizable=0;points=[];autosize=1;strokeColor=none;fillColor=none;fontSize=16;" vertex="1" parent="2b4e8129b02d487f-3">
          <mxGeometry x="460" y="61.5" width="40" height="30" as="geometry" />
        </mxCell>
        <mxCell id="og3euRuHdxeA9bLOcnyM-135" style="edgeStyle=orthogonalEdgeStyle;rounded=0;orthogonalLoop=1;jettySize=auto;html=1;entryX=0;entryY=0.5;entryDx=0;entryDy=0;" edge="1" parent="2b4e8129b02d487f-3" source="og3euRuHdxeA9bLOcnyM-136">
          <mxGeometry relative="1" as="geometry">
            <mxPoint x="690" y="66.5" as="targetPoint" />
          </mxGeometry>
        </mxCell>
        <mxCell id="og3euRuHdxeA9bLOcnyM-136" value="Realizar&amp;nbsp;&lt;div&gt;Login&lt;/div&gt;" style="rounded=1;whiteSpace=wrap;html=1;shadow=0;labelBackgroundColor=none;strokeWidth=1;fontFamily=Verdana;fontSize=8;align=center;arcSize=18;" vertex="1" parent="2b4e8129b02d487f-3">
          <mxGeometry x="600" y="47.99999999999994" width="70" height="37" as="geometry" />
        </mxCell>
        <mxCell id="og3euRuHdxeA9bLOcnyM-137" style="edgeStyle=orthogonalEdgeStyle;rounded=0;orthogonalLoop=1;jettySize=auto;html=1;entryX=0;entryY=0.581;entryDx=0;entryDy=0;entryPerimeter=0;" edge="1" parent="2b4e8129b02d487f-3" source="og3euRuHdxeA9bLOcnyM-130" target="og3euRuHdxeA9bLOcnyM-133">
          <mxGeometry relative="1" as="geometry" />
        </mxCell>
        <mxCell id="og3euRuHdxeA9bLOcnyM-138" value="&lt;span style=&quot;font-size: 8px;&quot;&gt;possui cadastro?&lt;/span&gt;" style="text;html=1;align=center;verticalAlign=middle;resizable=0;points=[];autosize=1;strokeColor=none;fillColor=none;fontSize=16;" vertex="1" parent="2b4e8129b02d487f-3">
          <mxGeometry x="410" y="75.5" width="80" height="30" as="geometry" />
        </mxCell>
        <mxCell id="og3euRuHdxeA9bLOcnyM-139" value="&lt;span style=&quot;font-size: 8px;&quot;&gt;sim&lt;/span&gt;" style="text;html=1;align=center;verticalAlign=middle;resizable=0;points=[];autosize=1;strokeColor=none;fillColor=none;fontSize=16;" vertex="1" parent="2b4e8129b02d487f-3">
          <mxGeometry x="530" y="10" width="40" height="30" as="geometry" />
        </mxCell>
        <mxCell id="2b4e8129b02d487f-4" value="Paciente" style="swimlane;html=1;startSize=20;horizontal=0;" parent="2b4e8129b02d487f-1" vertex="1">
          <mxGeometry y="170" width="1200" height="150" as="geometry" />
        </mxCell>
        <mxCell id="og3euRuHdxeA9bLOcnyM-6" style="edgeStyle=orthogonalEdgeStyle;rounded=0;orthogonalLoop=1;jettySize=auto;html=1;" edge="1" parent="2b4e8129b02d487f-4" source="2b4e8129b02d487f-5">
          <mxGeometry relative="1" as="geometry">
            <mxPoint x="110" y="68.5" as="targetPoint" />
          </mxGeometry>
        </mxCell>
        <mxCell id="2b4e8129b02d487f-5" value="" style="ellipse;whiteSpace=wrap;html=1;rounded=0;shadow=0;labelBackgroundColor=none;strokeWidth=1;fontFamily=Verdana;fontSize=8;align=center;fillColor=#d5e8d4;strokeColor=#82b366;" parent="2b4e8129b02d487f-4" vertex="1">
          <mxGeometry x="40" y="53.5" width="30" height="30" as="geometry" />
        </mxCell>
        <mxCell id="YPwDV1WgbGhiQQz9Uqcf-4" value="" style="strokeWidth=1;html=1;shape=mxgraph.flowchart.decision;whiteSpace=wrap;rounded=1;shadow=0;labelBackgroundColor=none;fontFamily=Verdana;fontSize=8;align=center;" parent="2b4e8129b02d487f-4" vertex="1">
          <mxGeometry x="110" y="52.999999999999886" width="30" height="30" as="geometry" />
        </mxCell>
        <mxCell id="VjBFUvE0pk2ebzaZ0n2s-49" value="" style="ellipse;whiteSpace=wrap;html=1;rounded=0;shadow=0;labelBackgroundColor=none;strokeWidth=1;fontFamily=Verdana;fontSize=8;align=center;fillColor=#f8cecc;strokeColor=#b85450;" parent="2b4e8129b02d487f-4" vertex="1">
          <mxGeometry x="1130" y="56.5" width="30" height="30" as="geometry" />
        </mxCell>
        <mxCell id="VjBFUvE0pk2ebzaZ0n2s-50" style="edgeStyle=none;curved=1;rounded=0;orthogonalLoop=1;jettySize=auto;html=1;fontSize=12;startSize=8;endSize=8;entryX=0;entryY=0.5;entryDx=0;entryDy=0;" parent="2b4e8129b02d487f-4" source="VjBFUvE0pk2ebzaZ0n2s-17" target="VjBFUvE0pk2ebzaZ0n2s-49" edge="1">
          <mxGeometry relative="1" as="geometry">
            <mxPoint x="1099.9999999999998" y="75" as="targetPoint" />
          </mxGeometry>
        </mxCell>
        <mxCell id="VjBFUvE0pk2ebzaZ0n2s-17" value="retira medicamento" style="rounded=1;whiteSpace=wrap;html=1;shadow=0;labelBackgroundColor=none;strokeWidth=1;fontFamily=Verdana;fontSize=8;align=center;" parent="2b4e8129b02d487f-4" vertex="1">
          <mxGeometry x="1030" y="53.5" width="70" height="37" as="geometry" />
        </mxCell>
        <mxCell id="VjBFUvE0pk2ebzaZ0n2s-16" value="realiza pagamento" style="rounded=1;whiteSpace=wrap;html=1;shadow=0;labelBackgroundColor=none;strokeWidth=1;fontFamily=Verdana;fontSize=8;align=center;" parent="2b4e8129b02d487f-4" vertex="1">
          <mxGeometry x="920" y="53" width="70" height="37" as="geometry" />
        </mxCell>
        <mxCell id="VjBFUvE0pk2ebzaZ0n2s-51" value="&lt;span style=&quot;font-size: 8px;&quot;&gt;sim&lt;/span&gt;" style="text;html=1;align=center;verticalAlign=middle;resizable=0;points=[];autosize=1;strokeColor=none;fillColor=none;fontSize=16;" parent="2b4e8129b02d487f-4" vertex="1">
          <mxGeometry x="720" y="100" width="40" height="30" as="geometry" />
        </mxCell>
        <mxCell id="VjBFUvE0pk2ebzaZ0n2s-10" value="solicita medicamento" style="rounded=1;whiteSpace=wrap;html=1;shadow=0;labelBackgroundColor=none;strokeWidth=1;fontFamily=Verdana;fontSize=8;align=center;" parent="2b4e8129b02d487f-4" vertex="1">
          <mxGeometry x="560" y="45.99999999999994" width="70" height="37" as="geometry" />
        </mxCell>
        <mxCell id="VjBFUvE0pk2ebzaZ0n2s-47" style="edgeStyle=none;curved=1;rounded=0;orthogonalLoop=1;jettySize=auto;html=1;entryX=-0.116;entryY=0.506;entryDx=0;entryDy=0;entryPerimeter=0;fontSize=12;startSize=8;endSize=8;" parent="2b4e8129b02d487f-4" source="VjBFUvE0pk2ebzaZ0n2s-10" target="2b4e8129b02d487f-13" edge="1">
          <mxGeometry relative="1" as="geometry" />
        </mxCell>
        <mxCell id="VjBFUvE0pk2ebzaZ0n2s-34" value="&lt;span style=&quot;font-size: 8px;&quot;&gt;sim&lt;/span&gt;" style="text;html=1;align=center;verticalAlign=middle;resizable=0;points=[];autosize=1;strokeColor=none;fillColor=none;fontSize=16;" parent="2b4e8129b02d487f-4" vertex="1">
          <mxGeometry x="590" y="115" width="40" height="30" as="geometry" />
        </mxCell>
        <mxCell id="VjBFUvE0pk2ebzaZ0n2s-12" value="" style="strokeWidth=1;html=1;shape=mxgraph.flowchart.decision;whiteSpace=wrap;rounded=1;shadow=0;labelBackgroundColor=none;fontFamily=Verdana;fontSize=8;align=center;" parent="2b4e8129b02d487f-4" vertex="1">
          <mxGeometry x="470" y="49.999999999999886" width="30" height="30" as="geometry" />
        </mxCell>
        <mxCell id="VjBFUvE0pk2ebzaZ0n2s-23" style="edgeStyle=none;curved=1;rounded=0;orthogonalLoop=1;jettySize=auto;html=1;exitX=1;exitY=0.5;exitDx=0;exitDy=0;exitPerimeter=0;entryX=0;entryY=0.5;entryDx=0;entryDy=0;fontSize=12;startSize=8;endSize=8;" parent="2b4e8129b02d487f-4" source="VjBFUvE0pk2ebzaZ0n2s-12" target="VjBFUvE0pk2ebzaZ0n2s-10" edge="1">
          <mxGeometry relative="1" as="geometry" />
        </mxCell>
        <mxCell id="VjBFUvE0pk2ebzaZ0n2s-15" value="&lt;font style=&quot;font-size: 8px;&quot;&gt;o medicamento&lt;/font&gt;&lt;div style=&quot;font-size: 8px;&quot;&gt;&lt;font style=&quot;font-size: 8px;&quot;&gt;precisa de prescrição?&lt;/font&gt;&lt;/div&gt;" style="text;html=1;align=center;verticalAlign=middle;resizable=0;points=[];autosize=1;strokeColor=none;fillColor=none;fontSize=16;" parent="2b4e8129b02d487f-4" vertex="1">
          <mxGeometry x="435" y="10" width="100" height="40" as="geometry" />
        </mxCell>
        <mxCell id="VjBFUvE0pk2ebzaZ0n2s-24" value="&lt;span style=&quot;font-size: 8px;&quot;&gt;não&lt;/span&gt;" style="text;html=1;align=center;verticalAlign=middle;resizable=0;points=[];autosize=1;strokeColor=none;fillColor=none;fontSize=16;" parent="2b4e8129b02d487f-4" vertex="1">
          <mxGeometry x="500" y="40" width="40" height="30" as="geometry" />
        </mxCell>
        <mxCell id="VjBFUvE0pk2ebzaZ0n2s-26" value="&lt;span style=&quot;font-size: 8px;&quot;&gt;sim&lt;/span&gt;" style="text;html=1;align=center;verticalAlign=middle;resizable=0;points=[];autosize=1;strokeColor=none;fillColor=none;fontSize=16;" parent="2b4e8129b02d487f-4" vertex="1">
          <mxGeometry x="480" y="115" width="40" height="30" as="geometry" />
        </mxCell>
        <mxCell id="VjBFUvE0pk2ebzaZ0n2s-9" value="aponta necessidade em medicamento" style="rounded=1;whiteSpace=wrap;html=1;shadow=0;labelBackgroundColor=none;strokeWidth=1;fontFamily=Verdana;fontSize=8;align=center;arcSize=18;" parent="2b4e8129b02d487f-4" vertex="1">
          <mxGeometry x="360" y="46.49999999999994" width="70" height="37" as="geometry" />
        </mxCell>
        <mxCell id="VjBFUvE0pk2ebzaZ0n2s-13" style="edgeStyle=none;curved=1;rounded=0;orthogonalLoop=1;jettySize=auto;html=1;exitX=1;exitY=0.5;exitDx=0;exitDy=0;fontSize=12;startSize=8;endSize=8;entryX=0;entryY=0.5;entryDx=0;entryDy=0;entryPerimeter=0;" parent="2b4e8129b02d487f-4" source="VjBFUvE0pk2ebzaZ0n2s-9" target="VjBFUvE0pk2ebzaZ0n2s-12" edge="1">
          <mxGeometry relative="1" as="geometry">
            <mxPoint x="390" y="68.78571428571433" as="targetPoint" />
          </mxGeometry>
        </mxCell>
        <mxCell id="YPwDV1WgbGhiQQz9Uqcf-60" style="edgeStyle=orthogonalEdgeStyle;rounded=0;orthogonalLoop=1;jettySize=auto;html=1;exitX=0.5;exitY=0;exitDx=0;exitDy=0;exitPerimeter=0;entryX=0.571;entryY=0.022;entryDx=0;entryDy=0;entryPerimeter=0;" parent="2b4e8129b02d487f-4" source="YPwDV1WgbGhiQQz9Uqcf-4" target="YPwDV1WgbGhiQQz9Uqcf-59" edge="1">
          <mxGeometry relative="1" as="geometry">
            <Array as="points">
              <mxPoint x="125" y="30" />
              <mxPoint x="310" y="30" />
            </Array>
            <mxPoint x="300" y="40" as="targetPoint" />
          </mxGeometry>
        </mxCell>
        <mxCell id="og3euRuHdxeA9bLOcnyM-8" style="edgeStyle=orthogonalEdgeStyle;rounded=0;orthogonalLoop=1;jettySize=auto;html=1;entryX=0;entryY=0.5;entryDx=0;entryDy=0;" edge="1" parent="2b4e8129b02d487f-4" source="YPwDV1WgbGhiQQz9Uqcf-63" target="YPwDV1WgbGhiQQz9Uqcf-59">
          <mxGeometry relative="1" as="geometry">
            <mxPoint x="260" y="64.99999999999989" as="targetPoint" />
            <Array as="points" />
          </mxGeometry>
        </mxCell>
        <mxCell id="YPwDV1WgbGhiQQz9Uqcf-63" value="Faz Cadastro" style="rounded=1;whiteSpace=wrap;html=1;shadow=0;labelBackgroundColor=none;strokeWidth=1;fontFamily=Verdana;fontSize=8;align=center;arcSize=18;" parent="2b4e8129b02d487f-4" vertex="1">
          <mxGeometry x="170" y="46.49999999999994" width="70" height="37" as="geometry" />
        </mxCell>
        <mxCell id="YPwDV1WgbGhiQQz9Uqcf-66" value="&lt;span style=&quot;font-size: 8px;&quot;&gt;sim&lt;/span&gt;" style="text;html=1;align=center;verticalAlign=middle;resizable=0;points=[];autosize=1;strokeColor=none;fillColor=none;fontSize=16;" parent="2b4e8129b02d487f-4" vertex="1">
          <mxGeometry x="185" width="40" height="30" as="geometry" />
        </mxCell>
        <mxCell id="YPwDV1WgbGhiQQz9Uqcf-67" value="&lt;span style=&quot;font-size: 8px;&quot;&gt;não&lt;/span&gt;" style="text;html=1;align=center;verticalAlign=middle;resizable=0;points=[];autosize=1;strokeColor=none;fillColor=none;fontSize=16;" parent="2b4e8129b02d487f-4" vertex="1">
          <mxGeometry x="130" y="60" width="40" height="30" as="geometry" />
        </mxCell>
        <mxCell id="og3euRuHdxeA9bLOcnyM-53" style="edgeStyle=orthogonalEdgeStyle;rounded=0;orthogonalLoop=1;jettySize=auto;html=1;entryX=0;entryY=0.5;entryDx=0;entryDy=0;" edge="1" parent="2b4e8129b02d487f-4" source="YPwDV1WgbGhiQQz9Uqcf-59" target="VjBFUvE0pk2ebzaZ0n2s-9">
          <mxGeometry relative="1" as="geometry" />
        </mxCell>
        <mxCell id="YPwDV1WgbGhiQQz9Uqcf-59" value="Realizar&amp;nbsp;&lt;div&gt;Login&lt;/div&gt;" style="rounded=1;whiteSpace=wrap;html=1;shadow=0;labelBackgroundColor=none;strokeWidth=1;fontFamily=Verdana;fontSize=8;align=center;arcSize=18;" parent="2b4e8129b02d487f-4" vertex="1">
          <mxGeometry x="270" y="46.49999999999994" width="70" height="37" as="geometry" />
        </mxCell>
        <mxCell id="og3euRuHdxeA9bLOcnyM-7" style="edgeStyle=orthogonalEdgeStyle;rounded=0;orthogonalLoop=1;jettySize=auto;html=1;entryX=0;entryY=0.581;entryDx=0;entryDy=0;entryPerimeter=0;" edge="1" parent="2b4e8129b02d487f-4" source="YPwDV1WgbGhiQQz9Uqcf-4" target="YPwDV1WgbGhiQQz9Uqcf-63">
          <mxGeometry relative="1" as="geometry" />
        </mxCell>
        <mxCell id="og3euRuHdxeA9bLOcnyM-9" value="&lt;span style=&quot;font-size: 8px;&quot;&gt;possui cadastro?&lt;/span&gt;" style="text;html=1;align=center;verticalAlign=middle;resizable=0;points=[];autosize=1;strokeColor=none;fillColor=none;fontSize=16;" vertex="1" parent="2b4e8129b02d487f-4">
          <mxGeometry x="80" y="74" width="80" height="30" as="geometry" />
        </mxCell>
        <mxCell id="VjBFUvE0pk2ebzaZ0n2s-46" value="&lt;span style=&quot;font-size: 8px;&quot;&gt;há estoque?&lt;/span&gt;" style="text;html=1;align=center;verticalAlign=middle;resizable=0;points=[];autosize=1;strokeColor=none;fillColor=none;fontSize=16;shadow=0;labelBackgroundColor=default;labelBorderColor=none;textShadow=0;" parent="2b4e8129b02d487f-4" vertex="1">
          <mxGeometry x="720" y="60" width="70" height="30" as="geometry" />
        </mxCell>
        <mxCell id="og3euRuHdxeA9bLOcnyM-89" style="edgeStyle=orthogonalEdgeStyle;rounded=0;orthogonalLoop=1;jettySize=auto;html=1;" edge="1" parent="2b4e8129b02d487f-4" source="2b4e8129b02d487f-13">
          <mxGeometry relative="1" as="geometry">
            <mxPoint x="725.0000000000002" y="-60" as="targetPoint" />
          </mxGeometry>
        </mxCell>
        <mxCell id="2b4e8129b02d487f-13" value="" style="strokeWidth=1;html=1;shape=mxgraph.flowchart.decision;whiteSpace=wrap;rounded=1;shadow=0;labelBackgroundColor=none;fontFamily=Verdana;fontSize=8;align=center;" parent="2b4e8129b02d487f-4" vertex="1">
          <mxGeometry x="710" y="49.499999999999915" width="30" height="30" as="geometry" />
        </mxCell>
        <mxCell id="VjBFUvE0pk2ebzaZ0n2s-55" value="&lt;span style=&quot;font-size: 8px;&quot;&gt;não&lt;/span&gt;" style="text;html=1;align=center;verticalAlign=middle;resizable=0;points=[];autosize=1;strokeColor=none;fillColor=none;fontSize=16;" parent="2b4e8129b02d487f-4" vertex="1">
          <mxGeometry x="720" width="40" height="30" as="geometry" />
        </mxCell>
        <mxCell id="og3euRuHdxeA9bLOcnyM-90" value="informa local de retirada" style="rounded=1;whiteSpace=wrap;html=1;shadow=0;labelBackgroundColor=none;strokeWidth=1;fontFamily=Verdana;fontSize=8;align=center;" vertex="1" parent="2b4e8129b02d487f-4">
          <mxGeometry x="810" y="53" width="70" height="37" as="geometry" />
        </mxCell>
        <mxCell id="VjBFUvE0pk2ebzaZ0n2s-1" value="Sistema" style="swimlane;html=1;startSize=20;horizontal=0;" parent="2b4e8129b02d487f-1" vertex="1">
          <mxGeometry y="320" width="1200" height="150" as="geometry" />
        </mxCell>
        <mxCell id="VjBFUvE0pk2ebzaZ0n2s-11" value="emite fatura" style="rounded=1;whiteSpace=wrap;html=1;shadow=0;labelBackgroundColor=none;strokeWidth=1;fontFamily=Verdana;fontSize=8;align=center;" parent="VjBFUvE0pk2ebzaZ0n2s-1" vertex="1">
          <mxGeometry x="920" y="43" width="70" height="37" as="geometry" />
        </mxCell>
        <mxCell id="VjBFUvE0pk2ebzaZ0n2s-29" style="edgeStyle=none;curved=1;rounded=0;orthogonalLoop=1;jettySize=auto;html=1;exitX=1;exitY=0.5;exitDx=0;exitDy=0;fontSize=12;startSize=8;endSize=8;entryX=0;entryY=0.5;entryDx=0;entryDy=0;entryPerimeter=0;" parent="VjBFUvE0pk2ebzaZ0n2s-1" source="VjBFUvE0pk2ebzaZ0n2s-20" target="VjBFUvE0pk2ebzaZ0n2s-27" edge="1">
          <mxGeometry relative="1" as="geometry">
            <mxPoint x="509.9999999999998" y="65.4655172413793" as="targetPoint" />
          </mxGeometry>
        </mxCell>
        <mxCell id="VjBFUvE0pk2ebzaZ0n2s-20" value="verifica prescrição do usuário, feita via scan" style="rounded=1;whiteSpace=wrap;html=1;shadow=0;labelBackgroundColor=none;strokeWidth=1;fontFamily=Verdana;fontSize=8;align=center;" parent="VjBFUvE0pk2ebzaZ0n2s-1" vertex="1">
          <mxGeometry x="445" y="39.75" width="80" height="43.5" as="geometry" />
        </mxCell>
        <mxCell id="YPwDV1WgbGhiQQz9Uqcf-79" style="edgeStyle=orthogonalEdgeStyle;rounded=0;orthogonalLoop=1;jettySize=auto;html=1;exitX=1;exitY=0.5;exitDx=0;exitDy=0;dashed=1;" parent="VjBFUvE0pk2ebzaZ0n2s-1" source="2b4e8129b02d487f-12" edge="1">
          <mxGeometry relative="1" as="geometry">
            <mxPoint x="840" y="-60" as="targetPoint" />
          </mxGeometry>
        </mxCell>
        <mxCell id="2b4e8129b02d487f-12" value="reserva medicamento" style="rounded=1;whiteSpace=wrap;html=1;shadow=0;labelBackgroundColor=none;strokeWidth=1;fontFamily=Verdana;fontSize=8;align=center;" parent="VjBFUvE0pk2ebzaZ0n2s-1" vertex="1">
          <mxGeometry x="690" y="42.99999999999994" width="70" height="37" as="geometry" />
        </mxCell>
        <mxCell id="og3euRuHdxeA9bLOcnyM-85" style="edgeStyle=orthogonalEdgeStyle;rounded=0;orthogonalLoop=1;jettySize=auto;html=1;entryX=0.5;entryY=0;entryDx=0;entryDy=0;" edge="1" parent="VjBFUvE0pk2ebzaZ0n2s-1" source="VjBFUvE0pk2ebzaZ0n2s-27" target="VjBFUvE0pk2ebzaZ0n2s-43">
          <mxGeometry relative="1" as="geometry" />
        </mxCell>
        <mxCell id="VjBFUvE0pk2ebzaZ0n2s-27" value="" style="strokeWidth=1;html=1;shape=mxgraph.flowchart.decision;whiteSpace=wrap;rounded=1;shadow=0;labelBackgroundColor=none;fontFamily=Verdana;fontSize=8;align=center;" parent="VjBFUvE0pk2ebzaZ0n2s-1" vertex="1">
          <mxGeometry x="580" y="46.499999999999886" width="30" height="30" as="geometry" />
        </mxCell>
        <mxCell id="VjBFUvE0pk2ebzaZ0n2s-28" value="&lt;span style=&quot;font-size: 8px;&quot;&gt;receita válida?&lt;/span&gt;" style="text;html=1;align=center;verticalAlign=middle;resizable=0;points=[];autosize=1;strokeColor=none;fillColor=none;fontSize=16;" parent="VjBFUvE0pk2ebzaZ0n2s-1" vertex="1">
          <mxGeometry x="590" y="30" width="80" height="30" as="geometry" />
        </mxCell>
        <mxCell id="VjBFUvE0pk2ebzaZ0n2s-43" value="" style="ellipse;whiteSpace=wrap;html=1;rounded=0;shadow=0;labelBackgroundColor=none;strokeWidth=1;fontFamily=Verdana;fontSize=8;align=center;fillColor=#f8cecc;strokeColor=#b85450;" parent="VjBFUvE0pk2ebzaZ0n2s-1" vertex="1">
          <mxGeometry x="580" y="100" width="30" height="30" as="geometry" />
        </mxCell>
        <mxCell id="VjBFUvE0pk2ebzaZ0n2s-45" value="&lt;span style=&quot;font-size: 8px;&quot;&gt;não&lt;/span&gt;" style="text;html=1;align=center;verticalAlign=middle;resizable=0;points=[];autosize=1;strokeColor=none;fillColor=none;fontSize=16;" parent="VjBFUvE0pk2ebzaZ0n2s-1" vertex="1">
          <mxGeometry x="590" y="69.75" width="40" height="30" as="geometry" />
        </mxCell>
        <mxCell id="VjBFUvE0pk2ebzaZ0n2s-25" style="edgeStyle=none;curved=1;rounded=0;orthogonalLoop=1;jettySize=auto;html=1;exitX=0.5;exitY=1;exitDx=0;exitDy=0;exitPerimeter=0;entryX=0.5;entryY=0;entryDx=0;entryDy=0;fontSize=12;startSize=8;endSize=8;" parent="2b4e8129b02d487f-1" source="VjBFUvE0pk2ebzaZ0n2s-12" target="VjBFUvE0pk2ebzaZ0n2s-20" edge="1">
          <mxGeometry relative="1" as="geometry" />
        </mxCell>
        <mxCell id="YPwDV1WgbGhiQQz9Uqcf-80" style="edgeStyle=orthogonalEdgeStyle;rounded=0;orthogonalLoop=1;jettySize=auto;html=1;exitX=0.5;exitY=0;exitDx=0;exitDy=0;entryX=0.5;entryY=1;entryDx=0;entryDy=0;dashed=1;" parent="2b4e8129b02d487f-1" source="VjBFUvE0pk2ebzaZ0n2s-11" target="VjBFUvE0pk2ebzaZ0n2s-16" edge="1">
          <mxGeometry relative="1" as="geometry" />
        </mxCell>
        <mxCell id="YPwDV1WgbGhiQQz9Uqcf-81" style="edgeStyle=orthogonalEdgeStyle;rounded=0;orthogonalLoop=1;jettySize=auto;html=1;exitX=0.5;exitY=0;exitDx=0;exitDy=0;entryX=0;entryY=0.5;entryDx=0;entryDy=0;dashed=1;" parent="2b4e8129b02d487f-1" source="VjBFUvE0pk2ebzaZ0n2s-16" target="VjBFUvE0pk2ebzaZ0n2s-54" edge="1">
          <mxGeometry relative="1" as="geometry" />
        </mxCell>
        <mxCell id="og3euRuHdxeA9bLOcnyM-86" style="edgeStyle=orthogonalEdgeStyle;rounded=0;orthogonalLoop=1;jettySize=auto;html=1;exitX=1;exitY=0.5;exitDx=0;exitDy=0;entryX=1.13;entryY=0.479;entryDx=0;entryDy=0;entryPerimeter=0;dashed=1;" edge="1" parent="2b4e8129b02d487f-1" source="VjBFUvE0pk2ebzaZ0n2s-18" target="2b4e8129b02d487f-13">
          <mxGeometry relative="1" as="geometry">
            <mxPoint x="750" y="250" as="targetPoint" />
            <Array as="points">
              <mxPoint x="790" y="88" />
              <mxPoint x="790" y="234" />
            </Array>
          </mxGeometry>
        </mxCell>
        <mxCell id="og3euRuHdxeA9bLOcnyM-91" style="edgeStyle=orthogonalEdgeStyle;rounded=0;orthogonalLoop=1;jettySize=auto;html=1;entryX=0;entryY=0.459;entryDx=0;entryDy=0;entryPerimeter=0;dashed=1;" edge="1" parent="2b4e8129b02d487f-1" source="og3euRuHdxeA9bLOcnyM-90" target="VjBFUvE0pk2ebzaZ0n2s-11">
          <mxGeometry relative="1" as="geometry">
            <mxPoint x="900" y="380" as="targetPoint" />
            <Array as="points">
              <mxPoint x="901" y="242" />
              <mxPoint x="901" y="380" />
            </Array>
          </mxGeometry>
        </mxCell>
      </root>
    </mxGraphModel>
  </diagram>
</mxfile>
